<?xml version="1.0" standalone="no"?>
<!DOCTYPE svg PUBLIC "-//W3C//DTD SVG 20010904//EN"
 "http://www.w3.org/TR/2001/REC-SVG-20010904/DTD/svg10.dtd">
<svg version="1.0" xmlns="http://www.w3.org/2000/svg"
 width="1692.000000pt" height="1692.000000pt" viewBox="0 0 1692.000000 1692.000000"
 preserveAspectRatio="xMidYMid meet">
<metadata>
Created by potrace 1.11, written by Peter Selinger 2001-2013
</metadata>
<g transform="translate(0.000000,1692.000000) scale(0.100000,-0.100000)"
fill="#000000" stroke="none">
<path d="M0 8460 l0 -8460 8460 0 8460 0 0 8460 0 8460 -8460 0 -8460 0 0
-8460z m7437 3985 c411 -44 750 -170 1042 -389 l73 -55 37 18 c20 11 64 35 97
54 221 125 559 246 859 307 241 49 411 64 755 64 340 0 491 -11 733 -55 468
-84 836 -251 1134 -516 l72 -64 98 74 c515 387 1172 577 1908 553 787 -26
1384 -276 1776 -745 277 -331 434 -700 491 -1156 43 -351 -24 -1137 -138
-1614 -95 -397 -288 -986 -482 -1471 -254 -634 -592 -1217 -943 -1625 -106
-123 -314 -326 -429 -417 -298 -238 -659 -418 -1018 -507 -437 -109 -946 -125
-1402 -45 -344 61 -684 194 -931 362 -97 66 -308 244 -309 260 -1 4 -23 31
-50 61 l-49 54 -63 -55 c-97 -83 -144 -119 -258 -195 -461 -310 -967 -486
-1528 -534 -178 -15 -513 -7 -672 16 -425 61 -788 205 -1110 440 l-45 33 -95
-60 c-634 -402 -1587 -544 -2350 -349 -249 63 -503 175 -701 307 -36 24 -68
44 -73 44 -4 0 -40 -20 -80 -44 -313 -190 -699 -310 -1146 -357 -152 -16 -589
-17 -710 -1 -337 44 -628 143 -871 293 -384 239 -649 596 -760 1026 -89 346
-79 757 33 1307 150 742 513 1772 966 2741 271 579 539 1076 715 1325 359 508
845 805 1437 880 107 13 491 13 619 -1 288 -31 498 -96 661 -204 86 -57 196
-174 239 -254 18 -33 34 -61 37 -61 2 0 42 29 88 64 385 294 914 461 1576 499
183 11 634 6 767 -8z"/>
<path d="M6685 12014 c-368 -35 -563 -70 -778 -140 -414 -135 -732 -358 -978
-686 -49 -66 -89 -124 -89 -129 0 -5 -4 -9 -10 -9 -5 0 -10 21 -10 48 0 26 -5
88 -10 137 -25 218 -78 337 -213 474 -73 74 -122 110 -217 157 -246 121 -695
158 -1047 84 -425 -89 -752 -334 -1027 -772 -212 -337 -534 -981 -801 -1603
-438 -1018 -710 -1877 -802 -2530 -25 -181 -25 -531 0 -665 81 -429 327 -761
706 -950 112 -56 291 -114 431 -141 164 -31 574 -38 793 -14 485 54 898 219
1177 473 l64 59 104 -93 c269 -240 587 -386 982 -450 124 -20 534 -28 675 -13
585 60 1047 247 1374 555 l80 75 88 -92 c280 -291 637 -466 1093 -535 142 -22
555 -25 700 -6 533 71 1003 270 1421 603 110 88 339 312 404 397 22 28 44 50
48 49 4 -1 25 -40 45 -87 212 -477 637 -803 1198 -919 201 -41 370 -54 629
-48 378 9 646 58 943 173 775 299 1336 980 1825 2214 330 833 527 1575 588
2222 17 183 6 580 -19 718 -114 607 -399 1002 -894 1234 -177 84 -350 133
-608 173 -163 25 -650 25 -830 0 -305 -43 -555 -119 -805 -244 -239 -120 -400
-238 -614 -450 -80 -78 -145 -142 -146 -140 -84 155 -149 243 -270 362 -281
278 -659 434 -1210 497 -169 19 -639 16 -800 -6 -526 -71 -970 -247 -1313
-518 -35 -28 -64 -49 -66 -47 -1 2 -19 27 -39 56 -136 189 -416 366 -717 452
-230 66 -301 74 -675 76 -187 2 -358 1 -380 -1z m720 -534 c365 -62 611 -233
675 -469 30 -113 1 -339 -59 -461 -103 -207 -298 -356 -562 -430 -184 -51
-402 -70 -809 -70 l-265 0 -26 -43 c-74 -118 -219 -417 -288 -595 l-21 -54 37
6 c178 28 455 40 602 25 284 -28 461 -132 512 -301 30 -98 23 -215 -21 -353
-178 -553 -606 -740 -1417 -620 -54 8 -109 17 -123 20 -26 6 -27 3 -113 -262
-76 -235 -167 -545 -167 -571 0 -5 53 4 118 19 275 67 470 89 722 84 139 -3
207 -9 272 -24 236 -54 380 -165 440 -338 32 -93 32 -276 0 -407 -124 -502
-629 -810 -1425 -866 -370 -26 -722 54 -988 225 -257 166 -417 402 -486 717
-24 113 -24 427 1 623 98 779 428 1805 885 2750 407 841 794 1213 1402 1349
319 71 829 92 1104 46z m3165 -10 c450 -41 755 -161 960 -377 92 -97 156 -215
191 -348 55 -212 8 -573 -107 -823 -72 -158 -205 -312 -338 -391 -152 -91
-346 -136 -546 -128 -191 8 -309 48 -400 137 -102 99 -116 239 -45 460 61 191
51 266 -41 314 -55 30 -251 30 -339 1 -130 -42 -262 -157 -371 -323 -289 -437
-826 -1880 -905 -2430 -14 -103 -7 -261 16 -323 25 -70 76 -124 141 -149 128
-47 253 -36 403 37 83 39 108 58 196 147 56 55 121 130 144 166 84 129 179
354 197 468 6 41 6 42 -23 42 -54 0 -185 39 -247 74 -183 103 -225 267 -134
526 95 271 250 438 483 518 148 50 381 77 600 69 251 -9 409 -61 536 -175 210
-188 245 -514 114 -1049 -115 -465 -328 -910 -601 -1253 -82 -103 -303 -326
-399 -401 -332 -263 -704 -422 -1120 -481 -118 -16 -455 -16 -570 0 -513 74
-865 329 -1034 748 -177 439 -135 1023 140 1946 254 852 661 1714 1026 2173
401 504 889 767 1534 824 138 12 407 12 539 1z m3858 -11 c370 -40 632 -155
829 -363 280 -296 368 -750 272 -1406 -112 -774 -394 -1643 -788 -2430 -157
-313 -262 -488 -419 -693 -286 -374 -646 -625 -1045 -728 -307 -79 -741 -91
-1047 -29 -336 68 -598 226 -750 450 -128 188 -188 398 -197 690 -19 568 183
1435 562 2414 266 689 432 1023 658 1326 81 108 250 286 347 365 266 217 601
353 983 399 137 17 463 20 595 5z m-10545 -24 c211 -37 331 -158 356 -358 5
-43 8 -95 5 -115 -2 -21 -6 -62 -10 -92 -3 -30 -18 -109 -34 -175 -106 -450
-418 -1187 -1055 -2500 -139 -286 -232 -479 -270 -560 -18 -38 -58 -124 -89
-189 -31 -66 -55 -121 -53 -122 2 -2 55 4 118 12 145 20 410 23 508 5 216 -39
353 -127 419 -269 25 -53 27 -67 26 -182 -2 -436 -264 -800 -698 -969 -359
-140 -879 -178 -1235 -90 -187 47 -300 108 -427 234 -79 78 -98 103 -137 185
-62 131 -78 199 -84 368 -14 376 108 930 374 1697 324 934 894 2175 1217 2650
114 168 261 303 414 379 180 90 450 128 655 91z"/>
<path d="M13885 10306 c-109 -28 -186 -89 -268 -214 -264 -401 -868 -2048
-963 -2628 -42 -256 40 -398 236 -412 195 -14 345 109 494 405 250 499 690
1726 827 2308 28 120 33 159 33 275 1 129 0 137 -26 180 -39 68 -92 93 -198
97 -47 1 -107 -3 -135 -11z"/>
</g>
</svg>
